<svg xmlns="http://www.w3.org/2000/svg" width="111" height="110" viewBox="0 0 111 110" fill="none">
    <g opacity="0.15" clip-path="url(#clip0_2_29)">
    <path d="M10.7239 55C10.7239 43.1482 15.432 31.7817 23.8126 23.4012C32.1931 15.0207 43.5595 10.3125 55.4114 10.3125C67.2633 10.3125 78.6297 15.0207 87.0102 23.4012C95.3908 31.7817 100.099 43.1482 100.099 55C100.099 56.3675 100.642 57.6791 101.609 58.646C102.576 59.613 103.888 60.1563 105.255 60.1563C106.623 60.1563 107.934 59.613 108.901 58.646C109.868 57.6791 110.411 56.3675 110.411 55C110.411 44.1221 107.186 33.4884 101.142 24.4437C95.0988 15.399 86.5089 8.34947 76.459 4.18665C66.409 0.0238305 55.3504 -1.06535 44.6814 1.05683C34.0125 3.17902 24.2124 8.41726 16.5205 16.1092C8.82864 23.801 3.5904 33.6011 1.46821 44.2701C-0.653976 54.939 0.435207 65.9977 4.59803 76.0476C8.76085 86.0975 15.8103 94.6874 24.855 100.731C33.8997 106.774 44.5334 110 55.4114 110C56.7789 110 58.0904 109.457 59.0574 108.49C60.0244 107.523 60.5677 106.211 60.5677 104.844C60.5677 103.476 60.0244 102.165 59.0574 101.198C58.0904 100.231 56.7789 99.6875 55.4114 99.6875C43.5595 99.6875 32.1931 94.9794 23.8126 86.5989C15.432 78.2183 10.7239 66.8519 10.7239 55Z" fill="url(#paint0_linear_2_29)" fill-opacity="0.8"/>
    <path d="M60.0658 85.4356L79.9757 105.346C80.2161 105.587 80.5227 105.751 80.8565 105.817C81.1903 105.884 81.5363 105.85 81.8508 105.72C82.1652 105.589 82.4339 105.368 82.6227 105.085C82.8115 104.802 82.912 104.469 82.9114 104.129V89.375H105.255C106.623 89.375 107.934 88.8318 108.901 87.8648C109.868 86.8978 110.411 85.5863 110.411 84.2188C110.411 82.8512 109.868 81.5397 108.901 80.5728C107.934 79.6058 106.623 79.0625 105.255 79.0625H82.9114V64.3088C82.912 63.9684 82.8115 63.6355 82.6227 63.3523C82.4339 63.0691 82.1652 62.8483 81.8508 62.718C81.5363 62.5876 81.1903 62.5536 80.8565 62.6201C80.5227 62.6867 80.2161 62.8509 79.9757 63.0919L60.0658 83.0019C59.9057 83.1616 59.7787 83.3512 59.692 83.56C59.6054 83.7688 59.5608 83.9927 59.5608 84.2188C59.5608 84.4448 59.6054 84.6687 59.692 84.8775C59.7787 85.0863 59.9057 85.276 60.0658 85.4356ZM77.9614 46.6125C78.4399 46.134 78.8195 45.566 79.0784 44.9408C79.3374 44.3156 79.4707 43.6455 79.4707 42.9688C79.4707 42.2921 79.3374 41.622 79.0784 40.9968C78.8195 40.3716 78.4399 39.8035 77.9614 39.325C77.4829 38.8465 76.9148 38.467 76.2896 38.208C75.6644 37.949 74.9943 37.8157 74.3176 37.8157C73.6409 37.8157 72.9708 37.949 72.3456 38.208C71.7204 38.467 71.1524 38.8465 70.6739 39.325L50.2551 59.7369L40.1489 49.6375C39.6704 49.159 39.1023 48.7795 38.4771 48.5205C37.8519 48.2615 37.1818 48.1282 36.5051 48.1282C35.8284 48.1282 35.1583 48.2615 34.5331 48.5205C33.9079 48.7795 33.3399 49.159 32.8614 49.6375C32.3829 50.116 32.0033 50.6841 31.7443 51.3093C31.4854 51.9345 31.3521 52.6046 31.3521 53.2813C31.3521 53.958 31.4854 54.6281 31.7443 55.2533C32.0033 55.8785 32.3829 56.4465 32.8614 56.925L46.6114 70.675C47.0896 71.154 47.6576 71.5339 48.2829 71.7932C48.9081 72.0524 49.5783 72.1858 50.2551 72.1858C50.932 72.1858 51.6022 72.0524 52.2274 71.7932C52.8526 71.5339 53.4206 71.154 53.8989 70.675L77.9614 46.6125Z" fill="url(#paint1_linear_2_29)" fill-opacity="0.8"/>
    </g>
    <defs>
    <linearGradient id="paint0_linear_2_29" x1="0.411376" y1="12.9206" x2="95.3853" y2="115.576" gradientUnits="userSpaceOnUse">
        <stop stop-color="white"/>
        <stop offset="1" stop-color="white" stop-opacity="0"/>
    </linearGradient>
    <linearGradient id="paint1_linear_2_29" x1="31.3521" y1="45.8071" x2="88.7727" y2="117.929" gradientUnits="userSpaceOnUse">
        <stop stop-color="white"/>
        <stop offset="1" stop-color="white" stop-opacity="0"/>
    </linearGradient>
    <clipPath id="clip0_2_29">
        <rect width="110" height="110" fill="white" transform="translate(0.411377)"/>
    </clipPath>
    </defs>
</svg>