<svg xmlns="http://www.w3.org/2000/svg" width="145" height="144" viewBox="0 0 145 144" fill="none">
    <g opacity="0.15">
    <path d="M93.5508 74.6389C78.9646 74.6389 67.1265 86.4615 67.1265 101.029C67.1265 115.596 78.9646 127.418 93.5508 127.418C108.137 127.418 119.975 115.596 119.975 101.029C119.975 86.4615 108.137 74.6389 93.5508 74.6389ZM102.271 113.432L90.9084 102.084V85.1948H96.1932V99.9202L105.97 109.684L102.271 113.432ZM98.8356 27.1376H82.0298C79.8102 21.0152 73.9968 16.5818 67.1265 16.5818C60.2562 16.5818 54.4429 21.0152 52.2233 27.1376H35.4174C29.6041 27.1376 24.8477 31.8878 24.8477 37.6935V116.862C24.8477 122.668 29.6041 127.418 35.4174 127.418H67.7079C64.5812 124.387 62.0376 120.81 60.2034 116.862H35.4174V37.6935H45.9871V53.5272H88.2659V37.6935H98.8356V64.5053C102.588 65.0331 106.129 66.1415 109.405 67.6721V37.6935C109.405 31.8878 104.649 27.1376 98.8356 27.1376ZM67.1265 37.6935C64.2199 37.6935 61.8417 35.3184 61.8417 32.4156C61.8417 29.5127 64.2199 27.1376 67.1265 27.1376C70.0332 27.1376 72.4114 29.5127 72.4114 32.4156C72.4114 35.3184 70.0332 37.6935 67.1265 37.6935Z" fill="url(#paint0_linear_2_23)" fill-opacity="0.8"/>
</g>
<defs>
    <linearGradient id="paint0_linear_2_23" x1="24.8477" y1="29.6007" x2="120.564" y2="118.395" gradientUnits="userSpaceOnUse">
    <stop stop-color="white"/>
    <stop offset="1" stop-color="white" stop-opacity="0"/>
    </linearGradient>
</defs>
</svg>