<svg width="144" height="144" viewBox="0 0 144 144" fill="none" xmlns="http://www.w3.org/2000/svg">
<g opacity="0.15">
<path d="M93.1396 74.6392C78.5534 74.6392 66.7153 86.4617 66.7153 101.029C66.7153 115.596 78.5534 127.418 93.1396 127.418C107.726 127.418 119.564 115.596 119.564 101.029C119.564 86.4617 107.726 74.6392 93.1396 74.6392ZM101.86 113.432L90.4971 102.084V85.195H95.782V99.9204L105.559 109.685L101.86 113.432ZM98.4244 27.1379H81.6186C79.3989 21.0155 73.5856 16.582 66.7153 16.582C59.845 16.582 54.0317 21.0155 51.812 27.1379H35.0062C29.1929 27.1379 24.4365 31.888 24.4365 37.6937V116.863C24.4365 122.668 29.1929 127.418 35.0062 127.418H67.2966C64.17 124.388 61.6264 120.81 59.7922 116.863H35.0062V37.6937H45.5759V53.5275H87.8547V37.6937H98.4244V64.5056C102.177 65.0334 105.717 66.1417 108.994 67.6723V37.6937C108.994 31.888 104.238 27.1379 98.4244 27.1379ZM66.7153 37.6937C63.8086 37.6937 61.4305 35.3187 61.4305 32.4158C61.4305 29.5129 63.8086 27.1379 66.7153 27.1379C69.622 27.1379 72.0002 29.5129 72.0002 32.4158C72.0002 35.3187 69.622 37.6937 66.7153 37.6937Z" fill="url(#paint0_linear_27_2938)" fill-opacity="0.8"/>
</g>
<defs>
<linearGradient id="paint0_linear_27_2938" x1="24.4365" y1="29.6009" x2="120.152" y2="118.395" gradientUnits="userSpaceOnUse">
<stop stop-color="white"/>
<stop offset="1" stop-color="white" stop-opacity="0"/>
</linearGradient>
</defs>
</svg>
